<?xml version="1.0" standalone="no"?>
<!DOCTYPE svg PUBLIC "-//W3C//DTD SVG 20010904//EN"
 "http://www.w3.org/TR/2001/REC-SVG-20010904/DTD/svg10.dtd">
<svg version="1.0" xmlns="http://www.w3.org/2000/svg"
 width="16.000000pt" height="16.000000pt" viewBox="0 0 16.000000 16.000000"
 preserveAspectRatio="xMidYMid meet">
<metadata>
Created by potrace 1.11, written by Peter Selinger 2001-2013
</metadata>
<g transform="translate(0.000000,16.000000) scale(0.006154,-0.006154)"
fill="#000000" stroke="none">
<path d="M550 2485 c-11 -13 -15 -13 -21 -3 -12 19 -28 -1 -80 -97 -23 -44
-51 -96 -61 -115 -13 -23 -17 -46 -14 -69 3 -20 -3 -57 -14 -92 -20 -60 -26
-119 -12 -119 4 0 31 46 60 103 29 56 83 161 122 232 73 135 84 175 51 175
-10 0 -24 -7 -31 -15z m-30 -58 c0 -8 -9 -22 -20 -32 -23 -21 -25 -16 -8 20
12 27 28 34 28 12z"/>
<path d="M652 2462 c-9 -20 -29 -53 -44 -73 -16 -20 -28 -42 -28 -49 0 -7 -45
-94 -99 -194 -140 -255 -166 -319 -181 -444 -7 -57 -9 -106 -6 -110 7 -6 276
125 383 187 46 27 56 40 99 123 26 51 58 116 71 143 12 28 30 64 39 80 9 17
32 59 51 95 19 36 43 74 54 86 10 11 19 26 19 32 0 7 14 36 30 65 17 30 30 63
30 75 0 19 -5 22 -47 22 -29 0 -53 -6 -65 -16 -16 -16 -18 -16 -24 0 -5 14
-25 16 -136 16 l-129 0 -17 -38z m159 -245 c-10 -9 -11 -8 -5 6 3 10 9 15 12
12 3 -3 0 -11 -7 -18z"/>
<path d="M1140 2451 c-17 -28 -43 -81 -58 -118 -15 -37 -39 -88 -53 -113 -15
-25 -38 -65 -52 -90 -46 -80 -118 -234 -115 -247 2 -9 30 2 88 32 47 24 202
103 345 175 143 72 266 140 274 150 7 11 23 20 35 20 11 0 57 19 101 41 44 23
129 66 188 96 92 47 108 58 105 76 l-3 22 -411 3 -412 2 -32 -49z"/>
<path d="M2104 2485 c-11 -27 3 -40 90 -83 95 -47 106 -49 106 -25 0 9 12 34
26 55 43 61 33 68 -101 68 -94 0 -117 -3 -121 -15z"/>
<path d="M2382 2448 c-57 -78 -64 -92 -49 -110 20 -25 105 -69 112 -58 10 16
28 188 21 205 -11 30 -45 16 -84 -37z"/>
<path d="M389 2373 c-15 -41 -5 -48 14 -9 9 20 12 36 7 36 -6 0 -15 -12 -21
-27z"/>
<path d="M277 1295 c-27 -43 -50 -136 -40 -162 3 -7 11 -13 19 -13 16 0 19
-36 4 -45 -24 -15 -42 -73 -56 -181 -8 -64 -14 -133 -12 -153 l3 -36 29 60
c15 33 34 76 41 95 8 19 30 73 50 120 43 102 71 175 79 213 12 52 -29 87 -63
55 -11 -11 -12 -7 -6 19 7 33 -1 73 -13 73 -4 -1 -20 -21 -35 -45z"/>
<path d="M785 1301 c-38 -74 -116 -91 -178 -40 -46 38 -53 34 -92 -60 -23 -57
-32 -114 -70 -450 -24 -212 -48 -424 -54 -471 -13 -101 -14 -120 -3 -120 11 0
37 55 73 154 16 43 33 84 37 90 3 6 14 31 23 56 39 106 90 225 103 239 18 20
86 161 86 178 0 13 56 141 95 213 13 25 32 68 44 97 l20 51 -30 46 c-17 25
-33 46 -35 46 -2 0 -10 -13 -19 -29z"/>
<path d="M1026 1284 c-10 -15 -38 -35 -61 -45 -37 -16 -45 -26 -70 -86 -15
-38 -38 -86 -51 -109 -13 -23 -33 -65 -44 -94 -12 -29 -29 -65 -39 -79 -10
-14 -25 -44 -33 -66 -9 -22 -34 -79 -56 -125 -22 -47 -54 -119 -71 -160 -18
-41 -47 -109 -66 -150 -74 -163 -108 -246 -109 -270 -1 -23 3 -25 43 -28 34
-3 49 2 67 19 l24 23 21 -23 c19 -20 28 -21 132 -19 l112 3 18 35 c58 115 227
483 227 495 0 8 135 279 178 355 29 52 72 166 72 190 0 6 7 18 15 26 23 23 18
75 -11 109 l-25 30 -17 -24 c-42 -62 -49 -66 -99 -66 -26 0 -56 4 -65 9 -13 6
-21 0 -34 -26 -11 -20 -19 -28 -22 -20 -2 8 2 25 9 38 9 17 10 33 3 51 -12 36
-25 37 -48 7z m4 -174 c0 -26 -27 -80 -40 -80 -13 0 -13 -2 6 53 16 49 34 62
34 27z m-284 -639 c-9 -16 -20 -33 -26 -36 -18 -11 -11 29 12 65 16 26 23 31
26 18 2 -9 -4 -30 -12 -47z m-85 -174 c-13 -13 -15 1 -4 30 7 17 8 17 11 -1 2
-10 -1 -23 -7 -29z"/>
<path d="M1526 1281 c-9 -17 -32 -39 -51 -48 -25 -12 -43 -33 -68 -82 -18 -36
-55 -109 -81 -161 -27 -52 -64 -124 -83 -160 -53 -101 -157 -322 -168 -360 -4
-14 -32 -75 -61 -136 -30 -62 -54 -115 -54 -119 0 -5 -12 -32 -27 -60 -40 -80
-34 -85 100 -85 75 0 119 4 129 13 18 13 65 103 97 184 11 29 37 84 56 123 19
39 44 92 54 118 34 85 182 385 187 379 8 -8 -28 -118 -48 -147 -9 -14 -22 -44
-28 -68 -6 -23 -26 -69 -45 -101 -19 -33 -35 -63 -35 -68 0 -5 -11 -24 -25
-43 -14 -19 -25 -40 -25 -48 0 -8 -13 -42 -29 -76 -57 -122 -92 -216 -89 -238
3 -23 3 -23 203 -26 253 -4 258 -3 287 51 27 48 45 51 40 6 -6 -55 3 -57 190
-58 94 0 179 4 189 10 22 11 69 153 69 207 0 20 5 64 10 97 5 33 14 101 19
150 6 50 26 216 46 370 36 291 42 389 25 400 -6 4 -29 -14 -51 -39 -34 -38
-47 -46 -75 -46 -54 0 -99 23 -113 59 -15 35 -37 41 -46 11 -10 -32 -63 -70
-98 -70 -40 0 -94 32 -109 65 -15 33 -25 32 -46 -6 -34 -61 -52 -79 -70 -69
-9 5 -34 12 -54 15 -27 4 -46 17 -71 47 l-35 41 -16 -32z m128 -215 c-6 -16
-24 -23 -24 -8 0 10 22 33 27 28 2 -2 1 -11 -3 -20z m-34 -65 c0 -17 -12 -41
-21 -41 -10 0 -12 33 -2 43 9 10 23 9 23 -2z m176 -267 c-5 -23 -11 -33 -17
-27 -6 6 -5 21 2 42 15 41 23 33 15 -15z m129 -233 c3 -5 1 -12 -5 -16 -5 -3
-10 1 -10 9 0 18 6 21 15 7z m-45 -139 c0 -31 -42 -78 -59 -67 -16 9 -14 23
10 61 26 42 49 45 49 6z"/>
<path d="M321 803 c-5 -10 -39 -82 -75 -161 -55 -121 -66 -154 -72 -219 -6
-67 -5 -78 12 -90 18 -13 18 -15 0 -61 -61 -155 -62 -160 -43 -179 17 -18 99
-24 114 -10 8 9 93 671 93 728 0 15 -19 10 -29 -8z"/>
</g>
</svg>
